<mxfile host="app.diagrams.net" agent="Mozilla/5.0 (Windows NT 10.0; Win64; x64) AppleWebKit/537.36 (KHTML, like Gecko) Chrome/139.0.0.0 Safari/537.36" version="28.0.7">
  <diagram name="Ejercicio" id="1hxmIGeo-rNWS_6xeddB">
    <mxGraphModel dx="800" dy="636" grid="1" gridSize="10" guides="1" tooltips="1" connect="1" arrows="0" fold="1" page="1" pageScale="1" pageWidth="827" pageHeight="1169" math="0" shadow="0">
      <root>
        <mxCell id="0" />
        <mxCell id="1" parent="0" />
        <mxCell id="vxEkGmxJRLMtM8Me1BdJ-14" style="edgeStyle=orthogonalEdgeStyle;rounded=0;orthogonalLoop=1;jettySize=auto;html=1;exitX=0.5;exitY=0;exitDx=0;exitDy=0;entryX=0;entryY=0.5;entryDx=0;entryDy=0;fontSize=12;startSize=8;endSize=8;" edge="1" parent="1" source="vxEkGmxJRLMtM8Me1BdJ-3" target="vxEkGmxJRLMtM8Me1BdJ-9">
          <mxGeometry relative="1" as="geometry" />
        </mxCell>
        <mxCell id="vxEkGmxJRLMtM8Me1BdJ-3" value="Cliente" style="whiteSpace=wrap;html=1;align=center;" vertex="1" parent="1">
          <mxGeometry x="60" y="410" width="100" height="40" as="geometry" />
        </mxCell>
        <mxCell id="vxEkGmxJRLMtM8Me1BdJ-47" style="edgeStyle=orthogonalEdgeStyle;rounded=0;orthogonalLoop=1;jettySize=auto;html=1;exitX=1;exitY=0.5;exitDx=0;exitDy=0;entryX=0;entryY=0.5;entryDx=0;entryDy=0;fontSize=12;startSize=8;endSize=8;" edge="1" parent="1" source="vxEkGmxJRLMtM8Me1BdJ-4" target="vxEkGmxJRLMtM8Me1BdJ-39">
          <mxGeometry relative="1" as="geometry" />
        </mxCell>
        <mxCell id="vxEkGmxJRLMtM8Me1BdJ-4" value="Libro" style="shape=ext;margin=3;double=1;whiteSpace=wrap;html=1;align=center;" vertex="1" parent="1">
          <mxGeometry x="360" y="440" width="100" height="40" as="geometry" />
        </mxCell>
        <mxCell id="vxEkGmxJRLMtM8Me1BdJ-5" value="Editorial" style="whiteSpace=wrap;html=1;align=center;" vertex="1" parent="1">
          <mxGeometry x="350" y="680" width="100" height="40" as="geometry" />
        </mxCell>
        <mxCell id="vxEkGmxJRLMtM8Me1BdJ-6" value="Inventario" style="shape=ext;margin=3;double=1;whiteSpace=wrap;html=1;align=center;" vertex="1" parent="1">
          <mxGeometry x="740" y="420" width="100" height="40" as="geometry" />
        </mxCell>
        <mxCell id="vxEkGmxJRLMtM8Me1BdJ-25" style="edgeStyle=orthogonalEdgeStyle;rounded=0;orthogonalLoop=1;jettySize=auto;html=1;exitX=0.5;exitY=1;exitDx=0;exitDy=0;entryX=0.5;entryY=0;entryDx=0;entryDy=0;fontSize=12;startSize=8;endSize=8;" edge="1" parent="1" source="vxEkGmxJRLMtM8Me1BdJ-7" target="vxEkGmxJRLMtM8Me1BdJ-23">
          <mxGeometry relative="1" as="geometry" />
        </mxCell>
        <mxCell id="vxEkGmxJRLMtM8Me1BdJ-7" value="Pedido" style="shape=ext;margin=3;double=1;whiteSpace=wrap;html=1;align=center;" vertex="1" parent="1">
          <mxGeometry x="350" y="220" width="100" height="40" as="geometry" />
        </mxCell>
        <mxCell id="vxEkGmxJRLMtM8Me1BdJ-15" style="edgeStyle=orthogonalEdgeStyle;rounded=0;orthogonalLoop=1;jettySize=auto;html=1;exitX=1;exitY=0.5;exitDx=0;exitDy=0;entryX=0;entryY=0.5;entryDx=0;entryDy=0;fontSize=12;startSize=8;endSize=8;" edge="1" parent="1" source="vxEkGmxJRLMtM8Me1BdJ-9" target="vxEkGmxJRLMtM8Me1BdJ-7">
          <mxGeometry relative="1" as="geometry" />
        </mxCell>
        <mxCell id="vxEkGmxJRLMtM8Me1BdJ-9" value="Compra" style="shape=rhombus;perimeter=rhombusPerimeter;whiteSpace=wrap;html=1;align=center;" vertex="1" parent="1">
          <mxGeometry x="110" y="210" width="120" height="60" as="geometry" />
        </mxCell>
        <mxCell id="vxEkGmxJRLMtM8Me1BdJ-20" value="(0,N)" style="text;html=1;align=center;verticalAlign=middle;whiteSpace=wrap;rounded=0;" vertex="1" parent="1">
          <mxGeometry x="304" y="210" width="60" height="30" as="geometry" />
        </mxCell>
        <mxCell id="vxEkGmxJRLMtM8Me1BdJ-27" style="edgeStyle=orthogonalEdgeStyle;rounded=0;orthogonalLoop=1;jettySize=auto;html=1;exitX=0.5;exitY=1;exitDx=0;exitDy=0;entryX=0.5;entryY=0;entryDx=0;entryDy=0;fontSize=12;startSize=8;endSize=8;" edge="1" parent="1" source="vxEkGmxJRLMtM8Me1BdJ-23" target="vxEkGmxJRLMtM8Me1BdJ-4">
          <mxGeometry relative="1" as="geometry" />
        </mxCell>
        <mxCell id="vxEkGmxJRLMtM8Me1BdJ-23" value="Contiene" style="shape=rhombus;perimeter=rhombusPerimeter;whiteSpace=wrap;html=1;align=center;" vertex="1" parent="1">
          <mxGeometry x="350" y="320" width="120" height="60" as="geometry" />
        </mxCell>
        <mxCell id="vxEkGmxJRLMtM8Me1BdJ-30" value="(1,1 )" style="text;html=1;align=center;verticalAlign=middle;whiteSpace=wrap;rounded=0;" vertex="1" parent="1">
          <mxGeometry x="110" y="380" width="60" height="30" as="geometry" />
        </mxCell>
        <mxCell id="vxEkGmxJRLMtM8Me1BdJ-31" value="(1,N)" style="text;html=1;align=center;verticalAlign=middle;whiteSpace=wrap;rounded=0;" vertex="1" parent="1">
          <mxGeometry x="410" y="260" width="40" height="30" as="geometry" />
        </mxCell>
        <mxCell id="vxEkGmxJRLMtM8Me1BdJ-32" value="(1,N)" style="text;html=1;align=center;verticalAlign=middle;whiteSpace=wrap;rounded=0;" vertex="1" parent="1">
          <mxGeometry x="414" y="415" width="40" height="30" as="geometry" />
        </mxCell>
        <mxCell id="vxEkGmxJRLMtM8Me1BdJ-37" style="edgeStyle=orthogonalEdgeStyle;rounded=0;orthogonalLoop=1;jettySize=auto;html=1;exitX=0.5;exitY=1;exitDx=0;exitDy=0;entryX=0.5;entryY=0;entryDx=0;entryDy=0;fontSize=12;startSize=8;endSize=8;" edge="1" parent="1" source="vxEkGmxJRLMtM8Me1BdJ-34" target="vxEkGmxJRLMtM8Me1BdJ-5">
          <mxGeometry relative="1" as="geometry" />
        </mxCell>
        <mxCell id="vxEkGmxJRLMtM8Me1BdJ-34" value="Pertenece" style="shape=rhombus;perimeter=rhombusPerimeter;whiteSpace=wrap;html=1;align=center;" vertex="1" parent="1">
          <mxGeometry x="340" y="555" width="120" height="60" as="geometry" />
        </mxCell>
        <mxCell id="vxEkGmxJRLMtM8Me1BdJ-35" value="(1,N)" style="text;html=1;align=center;verticalAlign=middle;whiteSpace=wrap;rounded=0;" vertex="1" parent="1">
          <mxGeometry x="420" y="480" width="40" height="30" as="geometry" />
        </mxCell>
        <mxCell id="vxEkGmxJRLMtM8Me1BdJ-36" style="edgeStyle=orthogonalEdgeStyle;rounded=0;orthogonalLoop=1;jettySize=auto;html=1;exitX=0.5;exitY=1;exitDx=0;exitDy=0;entryX=0.56;entryY=0.037;entryDx=0;entryDy=0;entryPerimeter=0;fontSize=12;startSize=8;endSize=8;" edge="1" parent="1" source="vxEkGmxJRLMtM8Me1BdJ-4" target="vxEkGmxJRLMtM8Me1BdJ-34">
          <mxGeometry relative="1" as="geometry" />
        </mxCell>
        <mxCell id="vxEkGmxJRLMtM8Me1BdJ-38" value="(1,1)" style="text;html=1;align=center;verticalAlign=middle;whiteSpace=wrap;rounded=0;" vertex="1" parent="1">
          <mxGeometry x="400" y="650" width="40" height="30" as="geometry" />
        </mxCell>
        <mxCell id="vxEkGmxJRLMtM8Me1BdJ-48" style="edgeStyle=orthogonalEdgeStyle;rounded=0;orthogonalLoop=1;jettySize=auto;html=1;exitX=1;exitY=0.5;exitDx=0;exitDy=0;entryX=0;entryY=0.5;entryDx=0;entryDy=0;fontSize=12;startSize=8;endSize=8;" edge="1" parent="1" source="vxEkGmxJRLMtM8Me1BdJ-39" target="vxEkGmxJRLMtM8Me1BdJ-6">
          <mxGeometry relative="1" as="geometry" />
        </mxCell>
        <mxCell id="vxEkGmxJRLMtM8Me1BdJ-39" value="Existe" style="shape=rhombus;perimeter=rhombusPerimeter;whiteSpace=wrap;html=1;align=center;" vertex="1" parent="1">
          <mxGeometry x="580" y="420" width="110" height="60" as="geometry" />
        </mxCell>
        <mxCell id="vxEkGmxJRLMtM8Me1BdJ-40" value="(0,1)" style="text;html=1;align=center;verticalAlign=middle;whiteSpace=wrap;rounded=0;" vertex="1" parent="1">
          <mxGeometry x="710" y="460" width="40" height="30" as="geometry" />
        </mxCell>
        <mxCell id="vxEkGmxJRLMtM8Me1BdJ-41" value="(1,N)" style="text;html=1;align=center;verticalAlign=middle;whiteSpace=wrap;rounded=0;" vertex="1" parent="1">
          <mxGeometry x="480" y="430" width="40" height="30" as="geometry" />
        </mxCell>
        <mxCell id="vxEkGmxJRLMtM8Me1BdJ-44" style="edgeStyle=none;curved=1;rounded=0;orthogonalLoop=1;jettySize=auto;html=1;exitX=0.75;exitY=1;exitDx=0;exitDy=0;fontSize=12;startSize=8;endSize=8;" edge="1" parent="1" source="vxEkGmxJRLMtM8Me1BdJ-6" target="vxEkGmxJRLMtM8Me1BdJ-6">
          <mxGeometry relative="1" as="geometry" />
        </mxCell>
      </root>
    </mxGraphModel>
  </diagram>
</mxfile>
